HIERARCHY
ROOT Hips
{
 OFFSET 0.000000 0.000000 0.000000
 CHANNELS 6 Xposition Yposition Zposition Yrotation Xrotation Zrotation
 JOINT Chest
 {
  OFFSET 0.000000 9.585900 0.002600
  CHANNELS 3 Yrotation Xrotation Zrotation
  JOINT Chest2
  {
   OFFSET 0.000000 9.601200 -0.005300
   CHANNELS 3 Yrotation Xrotation Zrotation
   JOINT Chest3
   {
    OFFSET 0.000000 9.561800 0.000000
    CHANNELS 3 Yrotation Xrotation Zrotation
    JOINT Chest4
    {
     OFFSET 0.000000 9.552100 0.000000
     CHANNELS 3 Yrotation Xrotation Zrotation
     JOINT Neck
     {
      OFFSET 0.000000 14.453000 0.000000
      CHANNELS 3 Yrotation Xrotation Zrotation
      JOINT Head
      {
       OFFSET 0.000000 8.936500 -0.011300
       CHANNELS 3 Yrotation Xrotation Zrotation
       End Site
       {
        OFFSET 0.000000 17.073600 -0.006000
       }
      }
     }
     JOINT RightCollar
     {
      OFFSET -2.921100 9.558500 0.000000
      CHANNELS 3 Yrotation Xrotation Zrotation
      JOINT RightShoulder
      {
       OFFSET -13.519700 0.000000 0.000000
       CHANNELS 3 Yrotation Xrotation Zrotation
       JOINT RightElbow
       {
        OFFSET 0.000000 -29.696600 0.000000
        CHANNELS 3 Yrotation Xrotation Zrotation
        JOINT RightWrist
        {
         OFFSET 0.000000 -24.004700 0.000000
         CHANNELS 3 Yrotation Xrotation Zrotation
         End Site
         {
          OFFSET 0.000000 -17.728500 0.000000
         }
        }
       }
      }
     }
     JOINT LeftCollar
     {
      OFFSET 2.921100 9.558500 0.000000
      CHANNELS 3 Yrotation Xrotation Zrotation
      JOINT LeftShoulder
      {
       OFFSET 13.519700 0.000000 0.000000
       CHANNELS 3 Yrotation Xrotation Zrotation
       JOINT LeftElbow
       {
        OFFSET 0.000000 -29.696600 0.000000
        CHANNELS 3 Yrotation Xrotation Zrotation
        JOINT LeftWrist
        {
         OFFSET 0.000000 -24.004700 0.000000
         CHANNELS 3 Yrotation Xrotation Zrotation
         End Site
         {
          OFFSET 0.000000 -17.728500 0.000000
         }
        }
       }
      }
     }
    }
   }
  }
 }
 JOINT RightHip
 {
  OFFSET -7.771700 -0.012900 -0.001300
  CHANNELS 3 Yrotation Xrotation Zrotation
  JOINT RightKnee
  {
   OFFSET 0.000000 -40.869800 0.001200
   CHANNELS 3 Yrotation Xrotation Zrotation
   JOINT RightAnkle
   {
    OFFSET 0.000000 -39.717900 0.002100
    CHANNELS 3 Yrotation Xrotation Zrotation
    JOINT RightToe
    {
     OFFSET 0.000000 -4.965400 11.033500
     CHANNELS 3 Yrotation Xrotation Zrotation
     End Site
     {
      OFFSET 0.000000 -1.423100 5.872300
     }
    }
   }
  }
 }
 JOINT LeftHip
 {
  OFFSET 7.771700 -0.012900 -0.001300
  CHANNELS 3 Yrotation Xrotation Zrotation
  JOINT LeftKnee
  {
   OFFSET 0.000000 -40.869800 0.001200
   CHANNELS 3 Yrotation Xrotation Zrotation
   JOINT LeftAnkle
   {
    OFFSET 0.000000 -39.717900 0.002100
    CHANNELS 3 Yrotation Xrotation Zrotation
    JOINT LeftToe
    {
     OFFSET 0.000000 -4.965400 11.033500
     CHANNELS 3 Yrotation Xrotation Zrotation
     End Site
     {
      OFFSET 0.000000 -1.423100 5.872300
     }
    }
   }
  }
 }
}
MOTION
Frames: 12
Frame Time: 0.008333
0.000000 85.388000 0.000000 0.000000 -5.767877 0.000000 0.000000 11.653817 0.000000 0.000000 -5.885947 0.000000 0.000000 -0.000000 0.000000 0.000000 -0.000000 0.000000 0.000000 12.528835 0.000000 0.000000 0.711642 0.000000 0.000000 -0.000000 0.000000 0.000000 0.000000 -90.000000 0.000000 -2.309062 0.000000 0.000000 2.309062 0.000000 0.000000 -0.000000 0.000000 0.000000 -0.000000 90.000000 0.000000 -2.309062 0.000000 0.000000 2.309062 0.000000 0.000000 8.520406 0.000000 0.000000 1.905762 0.000000 -0.000000 -4.658285 0.000000 0.000000 -0.000000 0.000000 0.000000 8.520406 0.000000 0.000000 1.905762 0.000000 -0.000000 -4.658285 0.000000 0.000000 -0.000000 0.000000
-40.988179 50.176767 17.741860 164.639553 -11.329010 -1.178917 2.057364 7.899818 1.242680 0.105899 0.400785 0.014838 0.184885 0.698957 0.026413 2.029868 7.562823 0.407748 4.515785 17.332691 1.200829 7.930716 -3.560985 0.694281 2.589251 6.985246 1.234432 -1.823127 -14.639332 -7.812847 22.039008 -55.228064 -6.754128 1.376744 9.163229 -28.915705 -5.068690 -0.193535 -1.488840 2.278370 -16.257487 10.775961 -43.815119 -49.967937 14.418809 -1.973657 -3.655789 30.057356 -5.634049 -69.295821 1.973533 -125.447246 79.886384 -124.918025 -3.857381 -16.674915 0.522048 -0.373761 0.741503 -0.185658 -10.527623 -73.867983 26.076118 99.479251 78.282866 96.435741 -15.824110 -22.187290 1.773906 0.025687 -0.980223 -0.262425
-40.966645 50.167128 17.738318 164.653273 -11.307461 -1.174887 2.087744 7.897620 1.264634 0.152040 0.422561 0.040224 0.168787 0.692080 0.015747 2.117803 7.585353 0.447966 4.517325 17.370639 1.217660 7.926854 -3.491441 0.726845 2.594093 7.169820 1.166366 -1.978766 -14.518615 -7.655505 21.523482 -55.884319 -6.511715 1.417450 9.535119 -28.570171 -5.104505 -0.174591 -1.517434 2.023231 -16.378137 10.761829 -43.565936 -50.042682 14.149984 -2.025992 -3.229652 29.732696 -5.629857 -69.319415 1.965041 -125.499934 79.856924 -124.982449 -3.797916 -16.713238 0.555356 -0.427069 0.753889 -0.212524 -10.973661 -73.858041 26.407023 99.530323 78.250099 96.497215 -15.825584 -22.161754 1.713492 0.086666 -1.000436 -0.245078
-40.942628 50.155488 17.735054 164.667893 -11.275660 -1.168530 2.176380 7.912561 1.328967 0.133099 0.414864 0.029549 0.108779 0.663017 -0.020821 2.249012 7.627304 0.514945 4.524686 17.411466 1.232556 7.934365 -3.416292 0.753944 2.611615 7.335403 1.107893 -2.102264 -14.378919 -7.512999 21.043024 -56.548969 -6.335482 1.509885 9.957819 -28.182038 -5.145300 -0.139409 -1.537520 1.775513 -16.496304 10.742426 -43.263556 -50.135295 13.838988 -2.059115 -2.778625 29.401787 -5.611527 -69.353470 1.948381 -125.534583 79.823671 -125.021483 -3.757241 -16.755680 0.584045 -0.463131 0.773605 -0.235973 -11.400795 -73.862401 26.724650 99.593864 78.219532 96.574391 -15.843303 -22.135947 1.657485 0.127142 -1.018802 -0.227999
-40.916588 50.141886 17.734675 164.653891 -11.221437 -1.162836 2.283422 7.903699 1.397843 0.116568 0.407439 0.018803 0.182277 0.699352 0.020171 2.232042 7.605421 0.503175 4.538525 17.453465 1.245498 7.954441 -3.338695 0.775357 2.634755 7.481472 1.056827 -2.198192 -14.225740 -7.384006 20.587773 -57.226648 -6.206489 1.640419 10.437294 -27.752675 -5.191028 -0.080333 -1.546806 1.541007 -16.617399 10.721347 -42.880963 -50.262348 13.461413 -2.078492 -2.295521 29.062917 -5.581615 -69.414292 1.947178 -125.591854 79.788665 -125.084303 -3.644845 -16.842827 0.623696 -0.570498 0.832951 -0.283702 -11.820353 -73.891715 27.071180 99.687454 78.192858 96.683905 -15.862265 -22.049627 1.604853 0.153591 -1.098931 -0.212666
-40.891323 50.128160 17.729588 164.647808 -11.187463 -1.144186 2.354688 7.907254 1.437876 0.085922 0.389024 -0.005629 0.242519 0.733609 0.061264 2.260544 7.603357 0.517351 4.559232 17.495385 1.256633 7.987844 -3.260907 0.791202 2.655060 7.614883 1.008566 -2.271483 -14.074879 -7.264349 20.128549 -57.908236 -6.085137 1.794829 10.960828 -27.280716 -5.249012 0.012497 -1.544967 1.331046 -16.751331 10.701353 -42.384308 -50.431699 12.983431 -2.076590 -1.783455 28.710204 -5.448838 -69.457418 1.838668 -125.674635 79.753406 -125.149157 -3.597976 -16.879882 0.662094 -0.616684 0.843810 -0.311989 -12.162623 -73.908793 27.336194 99.809962 78.169579 96.823617 -15.883999 -22.019744 1.557638 0.187837 -1.124231 -0.194326
-40.872101 50.113810 17.724157 164.657652 -11.142432 -1.097053 2.399401 7.901500 1.445981 0.105831 0.400845 0.008365 0.229755 0.726614 0.050990 2.304961 7.611432 0.543767 4.588241 17.535670 1.266253 8.037094 -3.185666 0.801432 2.673138 7.742073 0.961997 -2.334031 -13.945559 -7.154030 19.640951 -58.579888 -5.929547 1.964946 11.503001 -26.761621 -5.324569 0.150251 -1.533915 1.160802 -16.906312 10.684553 -41.748878 -50.646312 12.381706 -2.044538 -1.255534 28.333246 -5.273864 -69.510844 1.662782 -125.752980 79.720906 -125.219035 -3.559874 -16.939236 0.694115 -0.657018 0.874735 -0.330192 -12.387904 -73.948065 27.475675 99.968221 78.132459 96.954398 -15.850947 -21.974003 1.569781 0.173212 -1.169592 -0.239836
-40.848202 50.100820 17.715296 164.674132 -11.124771 -1.081541 2.435676 7.921830 1.485239 0.124394 0.412921 0.022787 0.188590 0.697916 0.013061 2.371668 7.641813 0.597466 4.626310 17.572221 1.274571 8.103472 -3.116882 0.806093 2.692847 7.861918 0.919385 -2.397871 -13.849851 -7.055065 19.119786 -59.234907 -5.724589 2.141829 12.049606 -26.192781 -5.414073 0.333471 -1.517521 1.036273 -17.081554 10.673135 -40.946411 -50.908677 11.641925 -1.993022 -0.721753 27.908255 -5.166177 -69.531604 1.557458 -125.882817 79.690106 -125.347975 -3.504872 -16.992472 0.742120 -0.724096 0.888376 -0.353855 -12.648498 -73.959121 27.642233 100.044760 78.114963 97.087734 -15.907127 -21.948433 1.503604 0.245103 -1.185821 -0.185994
-40.824480 50.087792 17.711743 164.671317 -11.077871 -1.082139 2.486281 7.912096 1.540419 0.103070 0.394559 -0.000482 0.229456 0.731718 0.053757 2.341772 7.617010 0.569670 4.721215 17.628531 1.319725 8.184490 -3.057563 0.806308 2.754398 7.996069 0.919998 -2.467890 -13.792443 -6.966761 18.567694 -59.866639 -5.467337 2.315276 12.593102 -25.587874 -5.480195 0.582802 -1.468710 0.963756 -17.265434 10.665912 -39.947198 -51.221386 10.758997 -1.943258 -0.192582 27.402729 -5.086838 -69.578451 1.500395 -125.943432 79.672937 -125.386555 -3.471767 -17.027565 0.762696 -0.763031 0.907421 -0.371266 -12.908356 -73.999090 27.836965 100.059661 78.097288 97.172904 -15.962526 -21.937698 1.441221 0.282042 -1.186916 -0.154913
-40.812162 50.076008 17.704858 164.701714 -11.034933 -1.032984 2.491863 7.909664 1.536365 0.116867 0.406778 0.013676 0.232028 0.735725 0.056726 2.316126 7.593393 0.544367 4.810308 17.678960 1.362978 8.278445 -3.006247 0.803045 2.798085 8.118132 0.927933 -2.549019 -13.775907 -6.886333 17.996549 -60.469933 -5.158136 2.476575 13.116801 -24.970788 -5.574876 0.852236 -1.425049 0.950547 -17.439153 10.658029 -38.746368 -51.590267 9.739210 -1.907789 0.324072 26.802373 -4.930152 -69.626354 1.317820 -126.090990 79.664207 -125.540111 -3.454598 -17.080241 0.798238 -0.796708 0.932344 -0.384671 -12.949340 -74.047943 27.782900 100.088090 78.062037 97.213527 -15.924426 -21.913962 1.419690 0.246268 -1.196389 -0.135672
-40.803961 50.066672 17.692840 164.752149 -11.020082 -0.972086 2.471411 7.936685 1.516224 0.120978 0.408310 0.015375 0.211270 0.717092 0.033963 2.357324 7.625878 0.592143 4.856844 17.703172 1.373095 8.386315 -2.961227 0.795632 2.789931 8.206496 0.912419 -2.641448 -13.797714 -6.814552 17.425502 -61.049802 -4.812516 2.621498 13.602128 -24.363110 -5.720025 1.097963 -1.418758 0.998928 -17.583704 10.647282 -37.354784 -52.018829 8.582907 -1.879893 0.821510 26.119883 -4.737342 -69.645165 1.081092 -126.323084 79.660572 -125.798145 -3.428227 -17.140901 0.858799 -0.862793 0.955663 -0.407860 -12.912616 -74.072348 27.629052 100.099494 78.028020 97.239348 -15.904337 -21.878813 1.439562 0.214701 -1.211641 -0.137640
-40.784165 50.058697 17.688690 164.776121 -10.984111 -1.002045 2.468520 7.919195 1.565680 0.114426 0.399035 0.004643 0.222633 0.728758 0.047388 2.404376 7.701235 0.697121 4.864960 17.685307 1.318884 8.508829 -2.923155 0.783438 2.745819 8.241888 0.845110 -2.739690 -13.851358 -6.755705 16.862118 -61.613877 -4.442582 2.747371 14.040164 -23.787159 -5.895932 1.284343 -1.477453 1.115999 -17.685422 10.628433 -35.787315 -52.496499 7.287115 -1.839160 1.277249 25.377790 -4.704622 -69.666926 1.050234 -126.389838 79.657293 -125.833149 -3.403825 -17.174558 0.881337 -0.896981 0.968784 -0.419359 -13.174321 -74.097455 27.804026 99.978106 78.026513 97.225512 -15.966519 -21.877576 1.352654 0.339747 -1.198761 -0.114659
